<?xml version="1.0" encoding="UTF-8"?>
<svg id="Layer_1" xmlns="http://www.w3.org/2000/svg" version="1.1" viewBox="0 0 322.8 42.9">
  <!-- Generator: Adobe Illustrator 30.1.0, SVG Export Plug-In . SVG Version: 2.1.1 Build 136)  -->
  <defs>
    <style>
      .st0 {
        fill: #f9fafb;
      }
    </style>
  </defs>
  <path class="st0" d="M105.1,8.8l-4.4,13.5h-7.4v-8.4h-7.6v17.7h-2.8V7.6h-7.6v32.8h-2.8V0h-8.2v34.8h-2.8V10.7h-8.2v18.9h-3v-11.2h-7.9v16.5h-3.4V0h-7.8v40.5h-2.9V7.6h-7.3v23.9h-3.1V14.1h-7.8v8.3H0v2.4h12.6v-8.3h2.9v17.4h8V10.1h2.4v32.8h7.8V2.4h2.9v34.8h8.3v-16.5h3v11.2h7.9V13.1h3.3v24.1h7.6V2.4h3.3v40.5h7.7V10.1h2.7v24h7.7v-17.7h2.7v5.9h0v2.6h9l-2.2,6.9h2.9l2.3-6.9h8.3l2.3,6.9h2.9l-7.5-22.9h-3.7ZM103.7,22.3h0s0,0,0,0l3.3-9.9,3.3,9.9h-6.5Z"/>
  <path class="st0" d="M123.1,15.4c-1,.6-1.7,1.4-2,2.4v-3h-2.6v16.9h2.6v-8.9c0-1.6.5-2.9,1.5-4,1-1.2,2.2-1.7,3.7-1.7h1.1v-2.6h-1.1c-1.2,0-2.2.3-3.1.9Z"/>
  <path class="st0" d="M136.4,14.3c-2.3,0-4.2.8-5.6,2.4-1.4,1.6-2.1,3.8-2.1,6.5s.7,4.8,2.1,6.5c1.4,1.6,3.3,2.4,5.6,2.4s4.2-.8,5.6-2.4c1.4-1.6,2.1-3.8,2.1-6.5s-.7-4.8-2.1-6.5c-1.4-1.6-3.3-2.4-5.6-2.4ZM140.1,27.9c-1,1.2-2.2,1.8-3.8,1.8s-2.8-.6-3.8-1.8c-.9-1.2-1.4-2.8-1.4-4.8s.5-3.6,1.4-4.7c1-1.2,2.2-1.8,3.8-1.8s2.8.6,3.8,1.8c.9,1.2,1.4,2.8,1.4,4.7s-.5,3.6-1.4,4.8Z"/>
  <path class="st0" d="M157.9,24.9c0,1.3-.4,2.5-1.3,3.4-.9,1-2,1.4-3.2,1.4s-2.2-.5-2.9-1.5c-.7-.9-1.1-2-1.1-3.3v-10h-2.6v10.3c0,1.8.6,3.4,1.7,4.8,1.2,1.4,2.6,2.1,4.3,2.1s2.1-.2,2.9-.6c1-.5,1.7-1.1,2.2-2v2.3h2.6V14.9h-2.6v10Z"/>
  <path class="st0" d="M171.7,14.6c-1,0-1.9.2-2.7.5-.9.4-1.5,1-2,1.8v-1.7s-2.6,0-2.6,0v16.6h2.6v-10.6c0-1.2.4-2.1,1.3-2.9.9-.8,1.9-1.2,3.1-1.2s2.2.4,3,1.2c.8.8,1.2,1.8,1.2,2.9v10.6h2.6v-10.6c0-1.8-.6-3.4-1.9-4.6-1.3-1.3-2.8-2-4.6-2Z"/>
  <path class="st0" d="M192.5,17.3c-.5-.8-1.1-1.5-2-2-.8-.5-1.7-.8-2.6-.8-2.1,0-3.8.9-5.2,2.6-1.3,1.7-2,3.6-2,6s.6,4.4,1.9,6.1c1.4,1.8,3.1,2.8,5.2,2.8s1.8-.3,2.7-.9c.8-.5,1.4-1.2,1.9-2.1v2.7h2.6V8.8h-2.6v8.5ZM191.3,27.6c-.9,1.4-2,2-3.4,2s-2.6-.7-3.4-2c-.8-1.2-1.1-2.7-1.1-4.4s.4-3.1,1.2-4.3c.9-1.3,2-2,3.4-2s2.6.7,3.4,2c.8,1.2,1.2,2.7,1.2,4.3s-.4,3.2-1.2,4.4Z"/>
  <polygon class="st0" points="213.4 18.3 201.9 18.3 201.9 8.8 199 8.8 199 31.8 201.9 31.8 201.9 20.9 213.4 20.9 213.4 31.8 216.2 31.8 216.2 8.8 213.4 8.8 213.4 18.3"/>
  <path class="st0" d="M226.4,14.3c-2.2,0-3.9.8-5.2,2.4-1.3,1.6-2,3.8-2,6.5s.7,4.8,2,6.5c1.3,1.6,3,2.4,5.2,2.4s3.5-.5,4.8-1.5c1.3-1,2-2.4,2.1-4.2h-2.6c-.1,1-.5,1.8-1.3,2.5-.8.6-1.8.9-3,.9s-2.5-.5-3.4-1.6c-.8-1-1.2-2.4-1.2-4.1h11.8v-.9c0-2.7-.7-4.8-2-6.5-1.3-1.6-3-2.4-5.2-2.4ZM221.8,21.7c.1-1.6.6-2.8,1.5-3.7.8-.9,1.9-1.4,3.1-1.4s2.3.5,3.1,1.4,1.3,2.2,1.4,3.7h-9.2Z"/>
  <path class="st0" d="M241,15.4c-1,.6-1.7,1.4-2,2.4v-3h-2.6v16.9h2.6v-8.9c0-1.6.5-2.9,1.5-4,1-1.2,2.2-1.7,3.7-1.7h1.1v-2.6h-1.1c-1.2,0-2.2.3-3.1.9Z"/>
  <path class="st0" d="M253.8,14.3c-2.2,0-3.9.8-5.2,2.4-1.3,1.6-2,3.8-2,6.5s.7,4.8,2,6.5c1.3,1.6,3,2.4,5.2,2.4s3.5-.5,4.8-1.5c1.3-1,2-2.4,2.1-4.2h-2.6c-.1,1-.5,1.8-1.3,2.5-.8.6-1.8.9-3,.9s-2.5-.5-3.4-1.6c-.8-1-1.2-2.4-1.2-4.1h11.8v-.9c0-2.7-.7-4.8-2-6.5-1.3-1.6-3-2.4-5.2-2.4ZM249.2,21.7c.1-1.6.6-2.8,1.5-3.7.8-.9,1.9-1.4,3.1-1.4s2.3.5,3.1,1.4,1.3,2.2,1.4,3.7h-9.2Z"/>
  <rect class="st0" x="263.8" y="28.8" width="3" height="3"/>
  <polygon class="st0" points="273.6 8.8 270.7 8.8 270.7 31.8 285.6 31.8 285.6 29.2 273.6 29.2 273.6 8.8"/>
  <rect class="st0" x="287.8" y="14.6" width="2.6" height="17.2"/>
  <rect class="st0" x="287.8" y="8.8" width="2.6" height="2.6"/>
  <polygon class="st0" points="299.8 28.3 295.2 14.9 292.7 14.9 298.4 31.8 301.3 31.8 307 14.9 304.4 14.9 299.8 28.3"/>
  <path class="st0" d="M322.8,23.2c0-2.7-.7-4.8-2-6.5-1.3-1.6-3-2.4-5.2-2.4s-3.9.8-5.2,2.4c-1.3,1.6-2,3.8-2,6.5s.7,4.8,2,6.5c1.3,1.6,3,2.4,5.2,2.4s3.5-.5,4.8-1.5c1.3-1,2-2.4,2.1-4.2h-2.6c-.1,1-.5,1.8-1.3,2.5-.8.6-1.8.9-3,.9s-2.5-.5-3.4-1.6c-.8-1-1.2-2.4-1.2-4.1h11.8v-.9ZM311,21.7c.1-1.6.6-2.8,1.5-3.7.8-.9,1.9-1.4,3.1-1.4s2.3.5,3.1,1.4,1.3,2.2,1.4,3.7h-9.2Z"/>
</svg>